<svg xmlns="http://www.w3.org/2000/svg" width="50.133" height="41.754" viewBox="38 243.027 50.133 41.754"><g data-name="dashboard-line"><g data-name="Group 63"><g data-name="Group 62"><path d="m73.968 255.28-8.973 8.822a4.555 4.555 0 1 0 2.14 2.156l8.989-8.822-2.156-2.156Z" fill="#c3cde2" fill-rule="evenodd" data-name="Path 24"/><path d="M63.066 243.027a25.037 25.037 0 0 0-19.13 41.223l.455.531h37.35l.456-.53a25.037 25.037 0 0 0-19.13-41.224Zm17.218 38.718H45.848a21.91 21.91 0 0 1-4.722-11.904h5.239v-3.037h-5.239a21.88 21.88 0 0 1 5.239-13.088l3.72 3.72 2.14-2.14-3.69-3.736a21.88 21.88 0 0 1 13.013-5.435v5.314h3.037v-5.3c11.01.8 19.718 9.644 20.345 20.665h-5.283v3.037h5.36a21.91 21.91 0 0 1-4.723 11.904Z" fill="#c3cde2" fill-rule="evenodd" data-name="Path 25"/></g></g></g></svg>