<svg xmlns="http://www.w3.org/2000/svg" width="12.816" height="21.839" viewBox="213.092 572.89 12.816 21.839"><g data-name="attach_money"><g data-name="Group 12"><path d="M219.991 582.475c-2.858-.716-3.777-1.456-3.777-2.609 0-1.322 1.272-2.244 3.4-2.244 2.24 0 3.071 1.031 3.147 2.548h2.782c-.088-2.087-1.41-4.004-4.041-4.623v-2.657h-3.777v2.62c-2.442.51-4.406 2.039-4.406 4.38 0 2.803 2.404 4.198 5.917 5.011 3.147.728 3.776 1.796 3.776 2.924 0 .837-.617 2.172-3.399 2.172-2.593 0-3.613-1.116-3.751-2.548h-2.77c.151 2.657 2.216 4.15 4.633 4.647v2.633h3.777v-2.609c2.455-.449 4.406-1.82 4.406-4.307 0-3.446-3.06-4.622-5.917-5.338Z" fill="#2a52bb" fill-rule="evenodd" data-name="Path 15"/></g></g></svg>