<svg xmlns="http://www.w3.org/2000/svg" width="44.407" height="41.743" viewBox="1831.983 33.626 44.407 41.743"><g data-name="cogwheel"><g data-name="Group 3"><path d="M1844.983 54.268a9 9 0 1 1 0 .1z" stroke-linejoin="round" stroke-linecap="square" stroke-width="3" stroke="#004580" fill="transparent" data-name="Ellipse 2"/><path d="M1876.39 57.28v-5.566l-6.36-.747a14.696 14.696 0 0 0-1.985-4.504l3.935-4.756-4.186-3.936-5.06 3.7a16.796 16.796 0 0 0-4.791-1.862l-.795-5.983h-5.921l-.795 5.983a16.738 16.738 0 0 0-4.792 1.865l-5.06-3.703-4.186 3.936 3.935 4.756a14.745 14.745 0 0 0-1.98 4.504l-6.366.747v5.566l6.365.747a14.696 14.696 0 0 0 1.985 4.504l-3.94 4.756 4.188 3.935 5.06-3.699c1.48.86 3.097 1.49 4.79 1.866l.796 5.98h5.92l.796-5.98a16.738 16.738 0 0 0 4.791-1.866l5.06 3.7 4.186-3.936-3.935-4.756a14.746 14.746 0 0 0 1.985-4.504l6.36-.747Z" stroke-linejoin="round" stroke-linecap="square" stroke-width="3" stroke="#004580" fill="transparent" data-name="Path 6"/></g></g></svg>