<svg xmlns="http://www.w3.org/2000/svg" width="47.382" height="39.982" viewBox="39.618 434.311 47.382 39.982"><path d="M52.538 434.638a1.11 1.11 0 0 0-1.574 0l-5.893 5.859-2.1-2.047a1.11 1.11 0 0 0-1.574 0l-1.453 1.455a1.11 1.11 0 0 0 0 1.573l4.404 4.387a1.183 1.183 0 0 0 1.63 0l1.443-1.446 6.682-6.68a1.119 1.119 0 0 0 .008-1.574l-1.573-1.527Zm0 14.732a1.11 1.11 0 0 0-1.574 0l-5.893 5.897-2.1-2.045a1.11 1.11 0 0 0-1.574 0l-1.453 1.452a1.11 1.11 0 0 0 0 1.573l4.393 4.396a1.182 1.182 0 0 0 1.63 0l1.452-1.452 6.682-6.684a1.11 1.11 0 0 0 .008-1.564l-1.571-1.573ZM45.54 465.41c-2.451 0-4.496 1.99-4.496 4.442s2.047 4.442 4.496 4.442a4.442 4.442 0 1 0 0-8.884Zm39.98 1.48H58.866a1.48 1.48 0 0 0-1.481 1.481v2.962c0 .817.663 1.48 1.48 1.48H85.52a1.48 1.48 0 0 0 1.481-1.48v-2.962a1.48 1.48 0 0 0-1.48-1.48Zm0-29.613H58.866a1.48 1.48 0 0 0-1.481 1.48v2.962c0 .817.663 1.48 1.48 1.48H85.52a1.48 1.48 0 0 0 1.481-1.48v-2.962a1.48 1.48 0 0 0-1.48-1.48Zm0 14.807H58.866a1.48 1.48 0 0 0-1.481 1.48v2.962c0 .817.663 1.48 1.48 1.48H85.52a1.48 1.48 0 0 0 1.481-1.48v-2.962a1.48 1.48 0 0 0-1.48-1.48Z" fill="#c3cde2" fill-rule="evenodd" data-name="Icon awesome-tasks"/></svg>